<svg width="29" height="25" viewBox="0 0 29 25" fill="none" xmlns="http://www.w3.org/2000/svg">
<path fill-rule="evenodd" clip-rule="evenodd" d="M4.9595 6.55177C6.83366 6.55177 8.00061 5.31283 8.00061 3.76543C7.96579 2.1842 6.83366 0.97998 4.99521 0.97998C3.15587 0.97998 1.9541 2.1842 1.9541 3.76543C1.9541 5.31283 3.1206 6.55177 4.92468 6.55177H4.9595ZM2.27168 24.8747H7.64666V8.75236H2.27168V24.8747Z" fill="#007AC0"/>
<path fill-rule="evenodd" clip-rule="evenodd" d="M10.6221 24.8748H15.9973V15.8714C15.9973 15.3895 16.0323 14.9079 16.1743 14.5638C16.5627 13.6009 17.4477 12.6034 18.9322 12.6034C20.8777 12.6034 21.6554 14.0827 21.6554 16.2497V24.8748H27.0302V15.6303C27.0302 10.6783 24.3786 8.37402 20.8418 8.37402C17.942 8.37402 16.6688 9.99019 15.9618 11.0907H15.9973V8.75236H10.6221C10.6926 10.2646 10.6221 24.8748 10.6221 24.8748Z" fill="#007AC0"/>
</svg>
